<mxfile host="app.diagrams.net" modified="2024-04-03T15:06:44.842Z" agent="Mozilla/5.0 (Windows NT 10.0; Win64; x64) AppleWebKit/537.36 (KHTML, like Gecko) Chrome/123.0.0.0 Safari/537.36" version="24.0.7" etag="VGgRXyMvVuk23XDQMS9-" type="github">
  <diagram name="Страница — 1" id="oQqpdBEjVrZ99oBrC2o0">
    <mxGraphModel>
      <root>
        <mxCell id="0" />
        <mxCell id="1" parent="0" />
      </root>
    </mxGraphModel>
  </diagram>
</mxfile>
